<svg width="30" height="31" viewBox="0 0 30 31" fill="none" xmlns="http://www.w3.org/2000/svg">
<path d="M22.9162 8.25415C24.1319 8.25415 25.2978 8.73708 26.1574 9.5967C27.0171 10.4563 27.5 11.6222 27.5 12.8379V23.6704C27.5 24.8861 27.0171 26.052 26.1574 26.9116C25.2978 27.7712 24.1319 28.2541 22.9162 28.2541H12.0837C10.8681 28.2541 9.70217 27.7712 8.84255 26.9116C7.98293 26.052 7.5 24.8861 7.5 23.6704V12.8379C7.5 11.6222 7.98293 10.4563 8.84255 9.5967C9.70217 8.73708 10.8681 8.25415 12.0837 8.25415H22.9162ZM18.75 3.25415C20.1175 3.25415 21.035 3.9204 21.7175 5.14665C21.7973 5.29012 21.848 5.4479 21.8668 5.61098C21.8856 5.77405 21.8721 5.93924 21.8271 6.0971C21.782 6.25496 21.7064 6.4024 21.6043 6.53101C21.5023 6.65962 21.376 6.76687 21.2325 6.84665C21.089 6.92643 20.9313 6.97717 20.7682 6.99597C20.6051 7.01477 20.4399 7.00127 20.2821 6.95623C20.1242 6.9112 19.9767 6.83551 19.8481 6.73349C19.7195 6.63147 19.6123 6.50512 19.5325 6.36165C19.2562 5.86415 19.105 5.75415 18.75 5.75415H6.25C5.565 5.75415 5 6.31915 5 7.00415V19.5016C5 19.9016 5.1925 20.2741 5.50875 20.5079L5.63375 20.5891C5.7764 20.6704 5.90165 20.779 6.00234 20.9086C6.10303 21.0383 6.17721 21.1865 6.22062 21.3448C6.26403 21.5031 6.27583 21.6685 6.25535 21.8314C6.23487 21.9942 6.18251 22.1515 6.10125 22.2941C6.01999 22.4368 5.91144 22.562 5.78178 22.6627C5.65212 22.7634 5.5039 22.8376 5.34557 22.881C5.18725 22.9244 5.02192 22.9362 4.85904 22.9157C4.69615 22.8953 4.5389 22.8429 4.39625 22.7617C3.82077 22.4344 3.34217 21.9606 3.00912 21.3885C2.67606 20.8163 2.5004 20.1662 2.5 19.5041V7.00415C2.5 4.93915 4.185 3.25415 6.25 3.25415H18.75ZM20.3662 14.8704L16.25 18.9854L14.6337 17.3704C14.398 17.1427 14.0822 17.0167 13.7545 17.0196C13.4268 17.0224 13.1132 17.1539 12.8815 17.3856C12.6497 17.6174 12.5183 17.9309 12.5154 18.2586C12.5126 18.5864 12.6386 18.9021 12.8662 19.1379L15.3662 21.6379C15.6007 21.8722 15.9185 22.0039 16.25 22.0039C16.5815 22.0039 16.8993 21.8722 17.1337 21.6379L22.1337 16.6379C22.3614 16.4021 22.4874 16.0864 22.4846 15.7586C22.4817 15.4309 22.3503 15.1174 22.1185 14.8856C21.8868 14.6539 21.5732 14.5224 21.2455 14.5196C20.9178 14.5167 20.602 14.6427 20.3662 14.8704Z" fill="#1B4045"/>
</svg>
