<svg width="46" height="46" viewBox="0 0 46 46" fill="none" xmlns="http://www.w3.org/2000/svg">
<path d="M28.625 21.125L21.125 28.625L17.375 24.875M8 32V21.9725C8 20.9713 8 20.4706 8.12188 20.0038C8.2298 19.5911 8.40735 19.1998 8.64687 18.8469C8.91875 18.4475 9.29562 18.1156 10.0494 17.4575L19.0513 9.57876C20.45 8.35626 21.1494 7.74501 21.935 7.51251C22.6288 7.30626 23.3694 7.30626 24.0631 7.51251C24.8506 7.74501 25.5519 8.35626 26.9506 9.58251L35.9506 17.4575C36.7062 18.1175 37.0813 18.4475 37.3531 18.845C37.5931 19.2038 37.7681 19.59 37.8781 20.0038C38 20.4706 38 20.9713 38 21.9725V32.0075C38 34.1038 38 35.1519 37.5912 35.9544C37.2309 36.6595 36.6566 37.2325 35.9506 37.5913C35.15 38 34.1019 38 32.0056 38H13.9944C11.8981 38 10.8481 38 10.0475 37.5913C9.34221 37.2322 8.76859 36.6593 8.40875 35.9544C8 35.15 8 34.1 8 32Z" stroke="#FFF065" stroke-width="2" stroke-linecap="round" stroke-linejoin="round"/>
</svg>
